<svg xmlns="http://www.w3.org/2000/svg" viewBox="0 0 104.03 48.16"><defs><style>.cls-1{fill:#fff;}</style></defs><title>JuulLogo</title><g id="Layer_2" data-name="Layer 2"><g id="Layer_1-2" data-name="Layer 1"><path class="cls-1" d="M95.74,33.85V0H90.3V33.89A14,14,0,0,0,104,48.16V42.5a8.47,8.47,0,0,1-8.29-8.65m-87.21,0A8.59,8.59,0,0,1,0,42.5v5.66A14.17,14.17,0,0,0,14.07,33.89V0H8.53V33.85ZM78.23,0V33.89a8.73,8.73,0,0,1-17.46,0V0H55.06V33.89a14.4,14.4,0,0,0,28.8,0V0ZM43.11,0V33.89a8.53,8.53,0,1,1-17.06,0V0H20.47V33.89a14.07,14.07,0,1,0,28.14,0V0Z"/></g></g></svg>