<svg xmlns="http://www.w3.org/2000/svg" viewBox="0 0 104.3 82.06"><defs><style>.cls-1,.cls-2{fill:#fff;}.cls-2{font-size:29.01px;font-family:TwCenMT-Regular, Tw Cen MT;}.cls-3{letter-spacing:-0.04em;}</style></defs><title>JuulTracker</title><g id="Layer_2" data-name="Layer 2"><g id="Layer_1-2" data-name="Layer 1"><path class="cls-1" d="M95.88,33.85V0H90.43V33.89a14,14,0,0,0,13.74,14.27V42.5a8.47,8.47,0,0,1-8.29-8.65m-87.21,0A8.6,8.6,0,0,1,.13,42.5v5.66A14.17,14.17,0,0,0,14.2,33.89V0H8.67V33.85ZM78.36,0V33.89a8.73,8.73,0,0,1-17.46,0V0H55.2V33.89a14.4,14.4,0,0,0,28.79,0V0ZM43.25,0V33.89a8.54,8.54,0,1,1-17.07,0V0H20.61V33.89a14.07,14.07,0,1,0,28.14,0V0Z"/><text class="cls-2" transform="translate(0 74)">TR<tspan class="cls-3" x="27.21" y="0">A</tspan><tspan x="43.57" y="0">CKER</tspan></text></g></g></svg>